<svg width="40" height="48" viewBox="0 0 40 48" fill="none" xmlns="http://www.w3.org/2000/svg">
<path fill-rule="evenodd" clip-rule="evenodd" d="M29.898 32.264H34.562C32.378 35.72 27.352 39.54 22 39.968V31.776C24.984 31.016 28.054 29.172 30.49 25.85L27.264 23.484C25.708 25.608 23.842 26.906 22 27.596V19.986L22.708 19.81L22.7157 19.8081C27.6573 18.6127 32.7626 17.3777 33.934 12.948C35.05 8.734 32.03 5.628 27.812 4.31C28.136 5.822 28.03 7.066 27.566 8.48C29.17 9.174 30.512 10.228 30.066 11.926C29.516 14.01 25.728 14.962 22 15.866V15.794C22 13.3753 23.0241 12.0632 24.036 10.7669C25.0239 9.50127 26 8.25067 26 6C26 2.692 23.308 0 20 0C16.692 0 14 2.692 14 6C14 8.26942 14.9761 9.51049 15.964 10.7665C16.9758 12.0529 18 13.3551 18 15.794V16.906C13.868 18.14 10.194 20.04 9.922 24.502C9.69 28.288 12.602 31.792 18 32.138V40C12.722 39.64 7.734 35.894 5.438 32.264H10.102L0 26V37.824L2.538 34.224C5.78344 39.6327 9.73219 41.6503 13.3879 43.5181C15.8193 44.7604 18.121 45.9365 20 48C21.8787 45.9367 24.1802 44.7607 26.6113 43.5184C30.2672 41.6502 34.2163 39.6323 37.462 34.222L40 37.822V26L29.898 32.264ZM20 4C21.104 4 22 4.898 22 6C22 7.102 21.104 8 20 8C18.896 8 18 7.102 18 6C18 4.898 18.896 4 20 4ZM18 21.12C15.532 21.98 14.02 23.016 13.914 24.748C13.826 26.182 14.922 27.834 18 28.152V21.12Z" fill="#0E4DA4"/>
</svg>
