<svg width="166" height="32" viewBox="0 0 166 32" fill="none" xmlns="http://www.w3.org/2000/svg">
<path d="M46.1455 0C34.4277 0 27.4092 7.15677 27.4092 16.0052C27.4092 24.8402 34.4277 32 46.1455 32C57.8595 32 64.8885 24.8402 64.8885 16.0052C64.8885 7.15677 57.8602 0 46.1455 0ZM46.1455 28.5658C40.5272 28.5658 36.2591 22.9311 36.2591 16.0045C36.2591 9.04721 40.5272 3.42297 46.1455 3.42297C51.766 3.42297 56.0325 9.04721 56.0325 16.0045C56.0325 22.9311 51.766 28.5658 46.1455 28.5658Z" fill="#0E4DA4"/>
<path d="M98.6774 1.10474H66.4854V4.69732H78.8143V30.7054H88.1156V4.69732H98.6774V1.10474Z" fill="#0E4DA4"/>
<path d="M133.95 1.10474H101.76V4.69732H112.316V30.7054H121.599V4.69732H133.95V1.10474Z" fill="#E4405F"/>
<path d="M10.6888 27.1512C9.70924 27.1512 8.91346 26.3614 8.91346 25.3855V1.10791H0V27.1683C0 29.1111 1.58334 30.681 3.54775 30.681H26.3414V27.1504H10.6888V27.1512Z" fill="#0E4DA4"/>
<path d="M148.207 4.64053H165.372V1.10474H141.059C139.1 1.10474 137.504 2.73814 137.504 4.66295V27.1697C137.504 29.1109 139.1 30.6808 141.059 30.6808H165.372V27.1898H148.207C147.232 27.1898 146.432 26.409 146.432 25.4324V16.7169H165.106V13.2641H146.432V6.40171C146.432 5.43556 147.232 4.64053 148.207 4.64053Z" fill="#E4405F"/>
</svg>
