<svg width="48" height="44" viewBox="0 0 48 44" fill="none" xmlns="http://www.w3.org/2000/svg">
<path fill-rule="evenodd" clip-rule="evenodd" d="M0 24C0 10.746 10.746 0 24 0C37.254 0 48 10.746 48 24C48 29.166 46.368 34.084 43.59 38H34.876C33.016 41.294 28.846 44 24 44C19.154 44 14.984 41.294 13.124 38H4.41C1.632 34.084 0 29.166 0 24ZM24 4C35.028 4 44 12.972 44 24C44 27.516 43.084 31 41.394 34H32.54C31.72 36.094 29.25 40 24 40C18.688 40 16.282 36.094 15.46 34H6.606C4.916 31 4 27.516 4 24C4 12.972 12.972 4 24 4ZM25.34 7.656C24.902 7.622 24.466 7.604 24.044 7.604C23.618 7.604 23.18 7.622 22.744 7.656V13.224C23.176 13.174 23.612 13.148 24.044 13.148C24.474 13.148 24.912 13.174 25.34 13.224V7.656ZM31.72 9.514C30.946 9.104 30.14 8.756 29.32 8.476L27.274 13.622C28.11 13.872 28.914 14.22 29.674 14.66L31.72 9.514ZM18.37 14.684C19.13 14.242 19.932 13.892 20.766 13.638L18.7 8.5C17.876 8.784 17.074 9.134 16.3 9.548L18.37 14.684ZM16.778 15.798C16.1 16.364 15.484 17.004 14.942 17.712L11.16 13.776C11.724 13.09 12.342 12.448 12.998 11.862L16.778 15.798ZM39.054 17.036C39.458 17.832 39.804 18.666 40.086 19.52L35.18 21.732C34.926 20.868 34.58 20.034 34.146 19.248L39.054 17.036ZM13.848 19.414C13.426 20.206 13.094 21.044 12.852 21.914L7.912 19.782C8.18 18.928 8.516 18.088 8.908 17.282L13.848 19.414ZM35.086 11.862C35.742 12.448 36.36 13.092 36.922 13.776L33.142 17.712C32.6 17.006 31.984 16.364 31.304 15.798L35.086 11.862ZM19.356 30.534C19.356 33.122 21.456 35.22 24.042 35.22C26.632 35.22 28.73 33.122 28.73 30.534C28.73 28.768 27.754 27.23 26.308 26.432L24.042 15.814L21.776 26.432C20.334 27.23 19.356 28.768 19.356 30.534Z" fill="#0E4DA4"/>
</svg>
