<svg width="48" height="48" viewBox="0 0 48 48" fill="none" xmlns="http://www.w3.org/2000/svg">
<path fill-rule="evenodd" clip-rule="evenodd" d="M35.334 25.224C36.204 25.11 37.064 24.834 37.906 24.428L38.624 25.288C39.52 26.386 40 27.804 40 29.294C40 31.526 38.93 33.76 37.016 35.088L18.162 46.98C17.102 47.646 15.672 48 14.48 48C10.304 48 6.79 44.424 7.254 40.014C7.454 38.122 8.364 36.46 10.008 35.13L12.562 38.22C11.378 39.112 11.042 40.27 11.354 41.528C11.636 42.65 12.614 43.96 14.452 43.96C15.686 43.96 16.756 43.298 17.31 42.188C17.864 41.08 17.752 39.828 17.01 38.842C16.9858 38.8104 16.3745 38.0717 15.4049 36.9003C11.9625 32.7415 4.00479 23.1275 1.778 20.328C0.616 18.866 0 17.094 0 15.354C0 12.524 1.632 10.132 4.1 8.95C8.21591 6.84278 11.3227 5.23168 13.6981 3.99991L13.6982 3.99984C20.0101 0.726669 21.157 0.13196 22.3479 0.0239528C22.6124 -2.8438e-05 22.879 -1.56169e-05 23.2048 8.55815e-07H23.23C25.668 8.55815e-07 27.95 1.306 29.186 3.412C30.97 6.456 30.17 10.336 27.326 12.438L11.734 21.33L9.076 18.082C10.252 17.174 10.642 15.994 10.322 14.712C10.04 13.592 9.062 12.282 7.224 12.282C6.048 12.282 4.9 13.02 4.364 14.118C3.804 15.26 4.016 16.55 4.954 17.75C7.77 21.354 19.062 34.992 20 36.106C20.936 37.22 21.504 38.56 21.652 40.002L22.5164 39.457L22.5191 39.4553C25.5648 37.5349 33.0392 32.8223 34.424 31.932C36.094 30.862 36.422 28.838 35.176 27.454L34.58 26.77C34.842 26.212 35.094 25.686 35.334 25.224ZM34.116 23.288C37.656 23.414 40.492 20.318 42.31 17.28C41.5 17.564 39.876 17.448 38.956 17.074C40.206 16.888 42.004 16.36 43.362 15.424C44.254 13.728 44.82 12.358 45.358 10.872C44.432 11.028 43.356 11.052 42.37 10.874C43.51 10.568 44.922 10.016 45.952 9.208C47.128 7.15 47.838 3.946 48 2C44.88 2.244 42.064 3.536 40.216 4.99C39.622 5.81 39.222 7.69 39.174 8.67C38.81 8 38.484 6.904 38.65 5.948C37.152 6.926 35.86 8.004 34.424 9.468C33.806 11.192 33.86 13.11 34.034 14.17C33.55 13.612 32.874 12.502 32.832 11.22C30.286 14.196 28.69 17.922 30.886 21.578C32.718 19.286 34.87 17.07 36.21 16.012C33.276 20.078 30.686 25.314 28.814 30L31.438 28.894C32.412 26.642 33.29 24.7 34.116 23.288ZM15.918 26.452L14.628 24.89L24.128 19.334L25.464 20.87L15.918 26.452ZM28.548 24.414L27.212 22.88L17.602 28.496L18.892 30.058L28.548 24.414ZM22.04 4.304C22.416 4.13 22.836 4.036 23.258 4.036C24.322 4.036 25.252 4.598 25.744 5.54C26.368 6.732 26.196 8.478 24.648 9.364L14.454 15.14C14.352 12.962 13.296 10.978 11.544 9.676L22.04 4.304ZM26.956 29.26L26.234 31.07L21.846 33.638L20.556 32.076L27.454 28.042L26.956 29.26Z" fill="#0E4DA4"/>
</svg>
