<svg width="32" height="26" viewBox="0 0 32 26" fill="none" xmlns="http://www.w3.org/2000/svg">
<path fill-rule="evenodd" clip-rule="evenodd" d="M32 3.07905C30.824 3.60156 29.5573 3.95345 28.2293 4.1134C29.5867 3.30032 30.624 2.01538 31.1173 0.482518C29.848 1.23429 28.4427 1.78079 26.9467 2.07403C25.752 0.797088 24.0427 0 22.1573 0C17.9173 0 14.8027 3.95345 15.76 8.05885C10.3067 7.78427 5.46667 5.17174 2.22933 1.2023C0.509333 4.15072 1.33867 8.01087 4.26133 9.96493C3.18667 9.93028 2.176 9.63437 1.29067 9.14385C1.21867 12.1829 3.4 15.0274 6.55733 15.6618C5.63467 15.9124 4.62133 15.9711 3.592 15.7738C4.42667 18.381 6.856 20.2764 9.72533 20.3297C6.96 22.4944 3.48533 23.4621 0 23.0516C2.90667 24.915 6.35467 26 10.0613 26C22.2533 26 29.1387 15.7072 28.7227 6.47534C30.008 5.55296 31.12 4.39598 32 3.07905Z" fill="#1DA1F2"/>
</svg>
